<?xml version="1.0" encoding="utf-8"?>
<!-- Generator: Adobe Illustrator 28.5.0, SVG Export Plug-In . SVG Version: 9.03 Build 54727)  -->
<svg version="1.1" id="Capa_1" xmlns="http://www.w3.org/2000/svg" xmlns:xlink="http://www.w3.org/1999/xlink" x="0px" y="0px"
	 viewBox="0 0 408.47 346.67" style="enable-background:new 0 0 408.47 346.67;" xml:space="preserve">
<style type="text/css">
	.st0{fill:#FFFFFF;}
</style>
<g>
	<path class="st0" d="M204.24,346.65c-26.87,0-53.74,0.01-80.61,0c-10.08,0-14.28-4.21-14.29-14.27
		c-0.01-38.71-0.09-77.42,0.03-116.12c0.09-28.82,18.21-51.69,46.11-58.31c4.22-1,8.68-1.4,13.03-1.43
		c23.94-0.13,47.89-0.22,71.83-0.02c28.47,0.23,51.37,18.62,57.73,46.31c1.06,4.61,1.37,9.48,1.39,14.23
		c0.11,38.57,0.07,77.15,0.06,115.72c0,9.54-4.34,13.88-13.87,13.88C258.51,346.66,231.37,346.65,204.24,346.65z"/>
	<path class="st0" d="M204.39,0c38.86-0.03,70.78,31.6,71.02,70.34c0.24,39.17-32.34,71.92-71.14,71.53
		c-39.29-0.4-70.97-32.36-70.82-71.45C133.59,31.73,165.52,0.03,204.39,0z"/>
	<path class="st0" d="M87.05,346.65c-7.9,0-15.86,0-23.82,0c-8.78,0-17.56,0.05-26.34-0.01c-21.7-0.16-36.77-15.28-36.84-37.05
		C-0.03,289.1,0,268.61,0.03,248.12c0.05-34.48,24.41-59.79,58.93-60.98c10.33-0.36,20.68-0.05,31.42-0.05
		c-0.35,1.46-0.67,2.44-0.82,3.44c-1.34,9.04-3.69,18.07-3.79,27.12c-0.43,38.18-0.23,76.37-0.12,114.55
		C85.67,336.91,86.54,341.62,87.05,346.65z"/>
	<path class="st0" d="M321.42,346.65c7.9,0,15.86,0,23.82,0c8.78,0,17.56,0.05,26.34-0.01c21.7-0.16,36.77-15.28,36.84-37.05
		c0.07-20.49,0.04-40.98,0.01-61.47c-0.05-34.48-24.41-59.79-58.93-60.98c-10.33-0.36-20.68-0.05-31.42-0.05
		c0.35,1.46,0.67,2.44,0.82,3.44c1.34,9.04,3.69,18.07,3.79,27.12c0.43,38.18,0.23,76.37,0.12,114.55
		C322.8,336.91,321.93,341.62,321.42,346.65z"/>
	<path class="st0" d="M26.74,119.26c-0.19-29.07,23.66-53,52.94-53.09c29.15-0.1,52.8,23.26,53.12,52.44
		c0.32,29.25-23.59,53.49-52.88,53.62C50.83,172.37,26.93,148.56,26.74,119.26z"/>
	<path class="st0" d="M382.12,119.08c0.06,29.15-23.74,53.02-52.99,53.15c-28.96,0.13-52.84-23.74-53.07-53.04
		c-0.22-29.1,23.63-52.99,52.93-53.02C358.26,66.15,382.06,89.84,382.12,119.08z"/>
</g>
</svg>
