<?xml version="1.0" encoding="UTF-8"?><svg id="a" xmlns="http://www.w3.org/2000/svg" viewBox="0 0 409.21 408.82"><defs><style>.b{fill:#132d3b;stroke-width:0px;}</style></defs><path class="b" d="M0,395.24V121.38c2.13-6.45,6.73-10.54,12.48-13.86C72.28,73.02,132.07,38.48,191.77,3.79c8.6-5,16.51-5.08,25.14-.07,59.93,34.82,119.93,69.51,179.99,104.12,8.46,4.87,12.35,11.52,12.33,21.43-.18,85.95-.18,171.91,0,257.86.02,10.69-4.09,17.83-13.98,21.69h-60.68c-.13-2.12-.36-4.23-.36-6.35-.02-63.99-.01-127.98-.02-191.97,0-1.86.05-3.73-.14-5.58-1.22-12.37-8.05-18.59-20.47-18.6-72.77-.01-145.54-.01-218.31,0-12.42,0-19.25,6.22-20.47,18.6-.18,1.85-.14,3.72-.14,5.58,0,63.99,0,127.98-.02,191.97,0,2.12-.23,4.23-.36,6.35H13.57c-6.64-2.41-11.16-6.94-13.57-13.57Z"/><path class="b" d="M110.98,408.82c-.04-11.04-.01-22.09-.16-33.13-.05-3.46,1.35-4.67,4.75-4.64,14.5.11,29.01.04,43.51.04,44.05,0,88.09,0,132.14,0,6.69,0,6.73.02,6.71,6.6-.02,10.38-.08,20.76-.13,31.13H110.98Z"/><path class="b" d="M204.46,260.59c-29.25,0-58.51,0-87.76,0-5.66,0-5.82-.15-5.84-5.8-.03-9.04.1-18.09-.05-27.13-.06-3.64,1.02-5.21,4.98-5.2,59.04.1,118.08.09,177.12,0,3.84,0,5.16,1.33,5.09,5.09-.16,9.31-.19,18.62.01,27.92.09,4.06-1.45,5.21-5.39,5.19-29.39-.13-58.77-.07-88.16-.07Z"/><path class="b" d="M204.38,334.86c-29.25,0-58.51,0-87.76,0-5.66,0-5.74-.07-5.76-5.85-.03-8.64-.02-17.29,0-25.93.01-6.18.1-6.27,6.21-6.27,51.59,0,103.18,0,154.77,0,6.78,0,13.56-.01,20.34,0,5.48.02,5.74.23,5.76,5.52.04,9.04.04,18.08,0,27.13-.02,5.19-.25,5.4-5.4,5.4-29.39.01-58.77,0-88.16,0Z"/></svg>