<?xml version="1.0" encoding="utf-8"?>
<!-- Generator: Adobe Illustrator 28.5.0, SVG Export Plug-In . SVG Version: 9.03 Build 54727)  -->
<svg version="1.1" id="Capa_1" xmlns="http://www.w3.org/2000/svg" xmlns:xlink="http://www.w3.org/1999/xlink" x="0px" y="0px"
	 viewBox="0 0 458.93 327.85" style="enable-background:new 0 0 458.93 327.85;" xml:space="preserve">
<style type="text/css">
	.st0{fill:#FFFFFF;}
</style>
<g>
	<path class="st0" d="M229.78,0.02c64.24,0,128.49,0.01,192.73-0.02c4.25,0,8.44,0.22,12.54,1.48c5.15,1.59,5.3,2.1,1.66,5.82
		c-0.22,0.22-0.44,0.44-0.66,0.67c-60.61,60.61-121.2,121.22-181.83,181.81c-11.75,11.74-26.73,14.29-40.38,7.05
		c-3.35-1.78-6.25-4.14-8.93-6.82C144.09,129.17,83.26,68.35,22.44,7.51c-3.91-3.91-3.74-4.47,1.6-6.08C28.13,0.19,32.33,0,36.58,0
		C100.98,0.03,165.38,0.02,229.78,0.02z"/>
	<path class="st0" d="M229.09,327.82c-64.26,0-128.52-0.01-192.78,0.03c-4.91,0-9.69-0.45-14.33-2.1c-2.34-0.83-3.15-1.99-1.01-3.96
		c0.81-0.74,1.55-1.56,2.32-2.33c45.44-45.44,90.87-90.88,136.31-136.31c4.51-4.51,4.52-4.51,9.02-0.02
		c7.2,7.2,14.35,14.47,21.61,21.61c22.97,22.56,55.73,22.47,78.67-0.2c7.58-7.49,15.14-15,22.57-22.65c2.29-2.36,3.82-2.9,6.45-0.26
		c46.36,46.5,92.8,92.94,139.29,139.32c3.02,3.01,2.11,4.13-1.42,5.19c-4.42,1.34-8.88,1.69-13.45,1.69
		C357.92,327.81,293.5,327.82,229.09,327.82z"/>
	<path class="st0" d="M0,163.69c0-41.83,0-83.67,0-125.5c0-4.71,0.28-9.4,1.54-13.96c1.53-5.56,2.38-5.78,6.38-1.79
		c15.19,15.17,30.36,30.35,45.54,45.53c30.58,30.58,61.11,61.21,91.81,91.66c3.37,3.34,3.41,5.17,0.02,8.55
		C99.54,213.72,53.93,259.4,8.28,305.05c-4.44,4.44-5.26,4.24-6.85-1.87C0.28,298.76,0,294.22,0,289.67C0,247.68,0,205.69,0,163.69z
		"/>
	<path class="st0" d="M458.93,163.7c0,41.99,0,83.98,0,125.97c0,4.87-0.3,9.72-1.66,14.41c-1.44,4.95-2.37,5.19-5.94,1.62
		c-17.52-17.49-35.02-35-52.52-52.51c-28.36-28.36-56.67-56.78-85.16-85.01c-3.4-3.37-3.33-5.21,0.03-8.55
		c45.75-45.54,91.36-91.22,137.01-136.86c4.42-4.42,5.25-4.21,6.83,1.92c1.14,4.42,1.42,8.95,1.42,13.51
		C458.93,80.03,458.93,121.87,458.93,163.7z"/>
</g>
</svg>
