<?xml version="1.0" encoding="UTF-8"?><svg id="a" xmlns="http://www.w3.org/2000/svg" viewBox="0 0 490.95 311.73"><defs><style>.b{fill:#132d3b;stroke-width:0px;}</style></defs><path class="b" d="M0,12.83C0,5.95,5.44.2,12.32.05c.05,0,.11,0,.16,0C14.24.02,15.99,0,17.75,0,105.53,0,193.32,0,281.1,0c10.43,0,18.88,8.45,18.88,18.88,0,76.62,0,153.23,0,229.85,0,2.07.07,4.16-.15,6.22-.76,7.13-3.92,10.39-10.89,11.27-1.12.14-2.25.18-3.37.18-37.94,0-75.88.01-113.82,0-11.78,0-14.48-2.22-16.78-13.69-4.56-22.74-23.73-39.6-46.96-41.93-18.92-1.9-35.44,2.78-48.82,16.59-6.91,7.14-11.17,15.81-13.11,25.64-2.22,11.24-4.96,13.38-16.51,13.4-5.43,0-10.85-.04-16.28,0-.06,0-.11,0-.17,0-7.26.03-13.1-5.98-13.1-13.23V12.83Z"/><path class="b" d="M318.11,160.35c0-29.69-.01-59.39.02-89.08,0-2.54.12-5.11.52-7.62.93-5.86,4.39-9.25,10.35-9.29,23.78-.15,47.57-.09,71.36-.03,4.74.01,7.88,2.98,10.73,6.38,16.88,20.22,33.78,40.41,50.67,60.62,8.39,10.04,16.7,20.16,25.19,30.12,2.74,3.22,4.02,6.63,4.01,10.89-.1,30.33-.04,60.66-.06,91,0,8.95-3.72,12.71-12.75,13.03-2.07.07-4.16.1-6.22-.06-7.73-.58-10.77-3.39-12.25-10.93-4.61-23.58-18.56-38.49-42-43.68-31.75-7.04-62.89,11.31-67.9,43.82-1.08,7.02-4.43,9.98-11.44,10.73-1.9.21-3.83.15-5.74.13-10.52-.12-14.43-3.94-14.46-14.56-.07-30.49-.02-60.98-.03-91.47ZM390.26,142.44c13.41,0,26.81-.04,40.22.02,4.29.02,7.94-.99,9.98-5.14,2.12-4.3.79-8.02-2.08-11.46-12.78-15.32-25.54-30.64-38.3-45.98-2.84-3.41-6.36-5.04-10.86-5-12.93.11-25.85-.01-38.78.06-7.78.04-11.12,3.31-11.16,11.04-.08,15-.08,30,0,45,.04,8.29,3.28,11.42,11.73,11.45,13.09.04,26.17.01,39.26,0Z"/><path class="b" d="M100.72,311.69c-21.06.66-42.06-16.27-42.33-42.14-.24-23.04,19.19-41.89,42.26-41.87,21.67.02,42.02,16.86,42,42.03-.02,25.18-20.31,42.33-41.93,41.98ZM111.99,269.66c-.02-6.31-5.33-11.69-11.49-11.64-6.17.05-11.37,5.46-11.33,11.79.04,6.47,5.12,11.56,11.49,11.52,6.36-.04,11.35-5.19,11.33-11.68Z"/><path class="b" d="M404.48,311.73c-23.94-.11-42.69-19.64-41.67-43.86.87-20.75,17.15-37.95,37.82-39.98,25.17-2.47,46.29,17.46,46.15,42.23-.13,23.15-19,41.72-42.29,41.61ZM404.62,281.35c6.09.05,11.73-5.45,11.81-11.52.08-5.95-5.62-11.75-11.59-11.8-6.03-.05-11.68,5.54-11.72,11.61-.05,6.25,5.26,11.65,11.5,11.71Z"/></svg>