<?xml version="1.0" encoding="utf-8"?>
<!-- Generator: Adobe Illustrator 28.5.0, SVG Export Plug-In . SVG Version: 9.03 Build 54727)  -->
<svg version="1.1" id="Capa_1" xmlns="http://www.w3.org/2000/svg" xmlns:xlink="http://www.w3.org/1999/xlink" x="0px" y="0px"
	 viewBox="0 0 368.69 293.65" style="enable-background:new 0 0 368.69 293.65;" xml:space="preserve">
<style type="text/css">
	.st0{fill:#FFFFFF;}
</style>
<g>
	<path class="st0" d="M4.24,141.86c7.92-7.5,11.82-10.18,19.8-16.84C70.99,85.8,118.01,46.68,165.03,7.55
		c12.33-10.26,26.83-10,39.18,0.4c16.39,13.8,32.86,27.51,49.31,41.25c0.81,0.68,1.71,1.26,2.6,1.92c1.23-1.19,0.71-2.58,0.71-3.8
		c0.05-11.85,0.01-23.71,0.04-35.56c0.02-9.33,3.08-11.45,13.57-10.93c10.95,0.55,21.93,0.69,32.87,0.02
		c9.71-0.59,12.81,1.5,12.81,9.75c0.01,28.85,0.04,57.71-0.05,86.56c-0.01,2.89,0.81,4.82,3.1,6.7
		c15.09,12.37,30.05,24.9,45.04,37.39c5.53,4.6,5.91,8.46,1.31,14.11c-3.63,4.45-7.33,8.85-11.08,13.21
		c-4.8,5.58-8.68,5.94-14.42,1.17c-24.95-20.74-49.86-41.52-74.77-62.29c-26.02-21.69-52.06-43.37-78.02-65.13
		c-2.24-1.88-3.68-1.66-5.81,0.12c-50.44,42.14-100.92,84.21-151.4,126.29c-0.83,0.69-1.66,1.37-2.52,2.02
		c-4.5,3.37-8.63,3.06-12.34-1.24c-5.01-5.79-8.09-9.57-12.99-15.45l-1.05-1.31c-1.45-1.81-1.55-6.4,0.08-8.05L4.24,141.86z"/>
	<path class="st0" d="M52.63,224.92c0-17.72,0.06-35.44-0.06-53.16c-0.02-2.92,0.91-4.88,3.15-6.73
		c42.07-34.6,84.1-69.24,126.08-103.94c1.99-1.65,3.23-1.57,5.17,0.04c41.89,34.62,83.83,69.19,125.81,103.71
		c2.31,1.9,3.4,3.88,3.39,6.98c-0.1,35.08-0.06,70.16-0.07,105.24c0,10.41-6.09,16.55-16.47,16.57c-27.3,0.03-54.6,0.02-81.89,0.01
		c-4.58,0-4.7-0.13-4.7-4.97c-0.01-25.86,0-51.72-0.01-77.58c0-5.09-0.01-5.1-5.16-5.1c-15.92,0-31.85,0.09-47.77-0.07
		c-3.5-0.04-4.47,1.1-4.46,4.51c0.12,25.98,0.07,51.96,0.06,77.94c0,5.25-0.02,5.27-5.12,5.27c-27.06,0.01-54.12,0.02-81.18-0.01
		c-10.68-0.01-16.76-6.05-16.77-16.63C52.62,259.64,52.63,242.28,52.63,224.92z"/>
</g>
</svg>
