<?xml version="1.0" encoding="utf-8"?>
<!-- Generator: Adobe Illustrator 28.5.0, SVG Export Plug-In . SVG Version: 9.03 Build 54727)  -->
<svg version="1.1" id="Capa_1" xmlns="http://www.w3.org/2000/svg" xmlns:xlink="http://www.w3.org/1999/xlink" x="0px" y="0px"
	 viewBox="0 0 592.43 104.85" style="enable-background:new 0 0 592.43 104.85;" xml:space="preserve">
<style type="text/css">
	.st0{fill:#132D3B;}
	.st1{fill:#FFFFFF;}
	.st2{fill:#009DDA;}
</style>
<g>
	<rect x="1039.78" y="-215.62" class="st0" width="1080" height="1080"/>
</g>
<g>
	<g>
		<path class="st1" d="M1422.48,20.43h10.4v31.49h20.75v7.66h-31.15V20.43z"/>
		<path class="st1" d="M1453.19,40.01c0-13.03,7.77-20.41,19.52-20.41c11.75,0,19.52,7.38,19.52,20.41s-7.77,20.41-19.52,20.41
			C1460.96,60.42,1453.19,53.04,1453.19,40.01z M1481.6,40.01c0-8.39-3.52-12.42-8.89-12.42c-5.43,0-8.89,4.03-8.89,12.42
			c0,8.39,3.47,12.42,8.89,12.42C1478.08,52.42,1481.6,48.4,1481.6,40.01z"/>
		<path class="st1" d="M1523.38,53.99c-2.68,4.03-6.71,6.26-11.91,6.26c-10.35,0-17.11-7.33-17.11-20.19
			c0-13.14,7.49-20.47,19.3-20.47c10.29,0,17.34,5.59,18.9,15.16h-10.35c-1.12-4.81-4.42-7.33-8.45-7.33
			c-5.48,0-8.84,4.08-8.84,12.64c0,8.5,3.41,12.64,8.89,12.64c4.31,0,7.61-2.63,8.84-7.89h-8.89v-7.05h18.9v21.81h-9.28V53.99z"/>
		<path class="st1" d="M1535.9,20.43h10.35v39.15h-10.35V20.43z"/>
		<path class="st1" d="M1548.82,46.22H1559c0.62,4.64,3.24,6.77,8.17,6.77c4.7,0,6.82-1.68,6.82-3.75c0-3.08-3.91-4.19-8.61-5.37
			c-7.21-1.73-16.28-3.58-16.28-12.42c0-6.99,6.15-11.75,16.22-11.75c10.57,0,17.34,4.87,18.4,13.7h-9.79
			c-0.73-4.08-3.69-6.38-8.28-6.38c-4.36,0-6.15,1.51-6.15,3.52c0,3.02,4.14,4.14,9.06,5.37c7.1,1.73,15.77,3.75,15.77,12.3
			c0,7.16-6.38,12.08-16.89,12.08C1556.43,60.31,1549.88,55.33,1548.82,46.22z"/>
		<path class="st1" d="M1597.53,28.15h-13.37v-7.72h37.14v7.72h-13.37v31.43h-10.4V28.15z"/>
		<path class="st1" d="M1623.54,20.43h21.31c8.73,0,13.76,4.19,13.76,10.91c0,4.19-1.96,7.61-5.76,9.34
			c3.58,1.23,4.7,3.97,4.81,7.83c0.11,4.25,0.28,8.05,1.68,11.07h-10.63c-1.17-2.13-1.23-5.03-1.34-11.13
			c-0.06-2.8-1.17-4.03-3.8-4.03h-9.62v15.16h-10.4V20.43z M1633.94,27.98v9.17h9.56c3.02,0,4.92-1.62,4.92-4.59
			c0-3.02-1.85-4.59-4.92-4.59H1633.94z"/>
		<path class="st1" d="M1674.26,20.43h12.19l14.49,39.15h-11.07l-2.68-7.94h-14.37l-2.63,7.94h-10.46L1674.26,20.43z M1675.1,44.65
			h9.79l-4.87-14.93L1675.1,44.65z"/>
		<path class="st1" d="M1702.28,20.43h11.41l7.38,12.58l7.27,12.64l-0.11-12.64l-0.06-12.58h8.89v39.15h-11.47l-7.33-12.47
			l-7.22-12.53l0.11,12.53v12.47h-8.89V20.43z"/>
	</g>
	<g>
		<polygon class="st2" points="1587.27,-78.26 1587.27,-70.77 1609.73,-70.77 1609.73,-33.32 1549.82,-33.32 1549.82,-93.24 
			1564.79,-93.24 1564.79,-48.3 1594.76,-48.3 1594.76,-55.78 1572.28,-55.78 1572.28,-93.24 1609.73,-93.24 1609.73,-78.26 		"/>
		<path class="st2" d="M1542.33-94.67v68.84h68.82c3.35,0,6.07-2.72,6.07-6.07v-46.36h-7.49v-14.98h22.48v62.19
			c0,11.15-9.04,20.2-20.2,20.2h-84.66v-84.65c0-11.15,9.04-20.2,20.2-20.2h84.66v14.97h-83.81
			C1545.05-100.73,1542.33-98.02,1542.33-94.67z"/>
	</g>
</g>
<g>
	<g>
		<path class="st1" d="M132.37,23.8h15.21v46.05h30.35v11.21h-45.56V23.8z"/>
		<path class="st1" d="M177.28,52.42c0-19.06,11.37-29.85,28.55-29.85c17.18,0,28.55,10.8,28.55,29.85S223,82.28,205.82,82.28
			C188.65,82.28,177.28,71.48,177.28,52.42z M218.83,52.42c0-12.27-5.15-18.16-13-18.16c-7.93,0-13,5.89-13,18.16
			c0,12.27,5.07,18.16,13,18.16C213.67,70.58,218.83,64.69,218.83,52.42z"/>
		<path class="st1" d="M279.92,72.87c-3.93,5.89-9.82,9.16-17.42,9.16c-15.13,0-25.03-10.71-25.03-29.53
			c0-19.22,10.96-29.94,28.22-29.94c15.05,0,25.36,8.18,27.65,22.17H278.2c-1.64-7.03-6.46-10.72-12.35-10.72
			c-8.02,0-12.92,5.97-12.92,18.49c0,12.43,4.99,18.49,13,18.49c6.3,0,11.12-3.84,12.92-11.53h-13.01V49.15h27.65v31.9h-13.58V72.87
			z"/>
		<path class="st1" d="M298.24,23.8h15.13v57.25h-15.13V23.8z"/>
		<path class="st1" d="M317.13,61.5h14.89c0.9,6.79,4.74,9.9,11.94,9.9c6.87,0,9.98-2.45,9.98-5.48c0-4.5-5.73-6.13-12.6-7.85
			c-10.55-2.54-23.8-5.23-23.8-18.16c0-10.22,9-17.18,23.72-17.18c15.46,0,25.36,7.12,26.91,20.04h-14.31
			c-1.06-5.97-5.4-9.32-12.11-9.32c-6.38,0-9,2.21-9,5.15c0,4.42,6.05,6.05,13.25,7.85c10.39,2.54,23.07,5.48,23.07,17.99
			c0,10.47-9.32,17.67-24.7,17.67C328.26,82.12,318.69,74.84,317.13,61.5z"/>
		<path class="st1" d="M388.37,35.08h-19.55V23.8h54.31v11.29h-19.55v45.97h-15.21V35.08z"/>
		<path class="st1" d="M426.4,23.8h31.16c12.76,0,20.12,6.13,20.12,15.95c0,6.13-2.86,11.12-8.42,13.66
			c5.23,1.8,6.87,5.81,7.03,11.45c0.16,6.22,0.41,11.78,2.45,16.2h-15.54c-1.72-3.11-1.8-7.36-1.96-16.28
			c-0.08-4.09-1.72-5.89-5.56-5.89h-14.07v22.17H426.4V23.8z M441.61,34.84v13.41h13.99c4.42,0,7.2-2.37,7.2-6.71
			c0-4.42-2.7-6.71-7.2-6.71H441.61z"/>
		<path class="st1" d="M500.58,23.8h17.83l21.18,57.25h-16.2l-3.93-11.61h-21.02l-3.84,11.61h-15.3L500.58,23.8z M501.81,59.21
			h14.31L509,37.37L501.81,59.21z"/>
		<path class="st1" d="M541.56,23.8h16.69l10.8,18.4l10.63,18.49l-0.16-18.49l-0.08-18.4h13.01v57.25h-16.77l-10.71-18.24
			L554.4,44.49l0.16,18.32v18.24h-13V23.8z"/>
	</g>
	<g>
		<polygon class="st2" points="59.92,37.45 59.92,44.94 82.39,44.94 82.39,82.39 22.48,82.39 22.48,22.46 37.45,22.46 37.45,67.4 
			67.41,67.4 67.41,59.92 44.94,59.92 44.94,22.46 82.39,22.46 82.39,37.45 		"/>
		<path class="st2" d="M14.98,21.04v68.84h68.82c3.35,0,6.07-2.72,6.07-6.07V37.45h-7.49V22.46h22.48v62.19
			c0,11.15-9.04,20.2-20.2,20.2H0V20.2C0,9.04,9.04,0,20.2,0h84.66v14.97H21.05C17.7,14.97,14.98,17.69,14.98,21.04z"/>
	</g>
</g>
<g>
	<g>
		<polygon class="st2" points="1343.48,595.21 1343.48,602.7 1365.95,602.7 1365.95,640.15 1306.04,640.15 1306.04,580.23 
			1321.01,580.23 1321.01,625.17 1350.97,625.17 1350.97,617.69 1328.5,617.69 1328.5,580.23 1365.95,580.23 1365.95,595.21 		"/>
		<path class="st2" d="M1298.54,578.81v68.84h68.82c3.35,0,6.07-2.72,6.07-6.07v-46.36h-7.49v-14.98h22.48v62.19
			c0,11.15-9.04,20.2-20.2,20.2h-84.66v-84.65c0-11.15,9.04-20.2,20.2-20.2h84.66v14.97h-83.81
			C1301.26,572.74,1298.54,575.45,1298.54,578.81z"/>
	</g>
</g>
<g>
	<text transform="matrix(1 0 0 1 2235.4165 509.6495)" class="st1" style="font-family:'Owners-Bold'; font-size:119.5618px;">LOGISTRAN</text>
	<g>
		<polygon class="st2" points="2582.46,188.44 2582.46,203.75 2628.37,203.75 2628.37,280.28 2505.94,280.28 2505.94,157.82 
			2536.53,157.82 2536.53,249.66 2597.77,249.66 2597.77,234.37 2551.84,234.37 2551.84,157.82 2628.37,157.82 2628.37,188.44 		"/>
		<path class="st2" d="M2490.63,154.92v140.68h140.65c6.85,0,12.4-5.55,12.4-12.4v-94.74h-15.31v-30.62h45.93v127.09
			c0,22.8-18.48,41.27-41.27,41.27h-173.02V153.19c0-22.8,18.48-41.27,41.27-41.27h173.02v30.6h-171.27
			C2496.18,142.51,2490.63,148.07,2490.63,154.92z"/>
	</g>
</g>
<rect x="1252.89" y="1130.26" class="st1" width="672.53" height="46.31"/>
<rect x="1252.89" y="994.73" class="st1" width="224.18" height="46.31"/>
<rect x="1252.89" y="1070.4" class="st1" width="336.63" height="46.31"/>
</svg>
