<?xml version="1.0" encoding="utf-8"?>
<!-- Generator: Adobe Illustrator 28.5.0, SVG Export Plug-In . SVG Version: 9.03 Build 54727)  -->
<svg version="1.1" id="Capa_1" xmlns="http://www.w3.org/2000/svg" xmlns:xlink="http://www.w3.org/1999/xlink" x="0px" y="0px"
	 viewBox="0 0 592.43 104.85" style="enable-background:new 0 0 592.43 104.85;" xml:space="preserve">
<style type="text/css">
	.st0{fill:#132D3B;}
	.st1{fill:#FFFFFF;}
	.st2{fill:#009DDA;}
</style>
<g>
	<rect x="1039.78" y="-215.62" class="st0" width="1080" height="1080"/>
</g>
<g>
	<g>
		<path class="st1" d="M1196.72,410.82h25.33v76.68h50.53v18.66h-75.87V410.82z"/>
		<path class="st1" d="M1271.5,458.49c0-31.74,18.93-49.72,47.54-49.72c28.6,0,47.54,17.98,47.54,49.72s-18.93,49.72-47.54,49.72
			C1290.43,508.21,1271.5,490.23,1271.5,458.49z M1340.69,458.49c0-20.43-8.58-30.24-21.66-30.24c-13.21,0-21.66,9.81-21.66,30.24
			c0,20.43,8.44,30.24,21.66,30.24C1332.11,488.73,1340.69,478.92,1340.69,458.49z"/>
		<path class="st1" d="M1442.42,492.54c-6.54,9.81-16.34,15.25-29.01,15.25c-25.2,0-41.68-17.84-41.68-49.17
			c0-32.01,18.25-49.85,46.99-49.85c25.06,0,42.22,13.62,46.04,36.91h-25.2c-2.72-11.71-10.76-17.84-20.57-17.84
			c-13.35,0-21.52,9.94-21.52,30.78c0,20.7,8.31,30.78,21.66,30.78c10.49,0,18.52-6.4,21.52-19.21H1419v-17.16h46.04v53.12h-22.61
			V492.54z"/>
		<path class="st1" d="M1472.93,410.82h25.2v95.34h-25.2V410.82z"/>
		<path class="st1" d="M1504.39,473.61h24.79c1.5,11.31,7.9,16.48,19.89,16.48c11.44,0,16.62-4.09,16.62-9.13
			c0-7.49-9.53-10.22-20.98-13.08c-17.57-4.22-39.64-8.72-39.64-30.24c0-17.03,14.98-28.6,39.5-28.6
			c25.74,0,42.22,11.85,44.81,33.37h-23.84c-1.77-9.94-8.99-15.53-20.16-15.53c-10.62,0-14.98,3.68-14.98,8.58
			c0,7.36,10.08,10.08,22.07,13.08c17.3,4.22,38.41,9.13,38.41,29.96c0,17.43-15.53,29.42-41.13,29.42
			C1522.91,507.94,1506.98,495.81,1504.39,473.61z"/>
		<path class="st1" d="M1623.02,429.62h-32.55v-18.8h90.44v18.8h-32.55v76.55h-25.33V429.62z"/>
		<path class="st1" d="M1686.35,410.82h51.89c21.25,0,33.51,10.22,33.51,26.56c0,10.22-4.77,18.52-14.03,22.75
			c8.72,3,11.44,9.67,11.71,19.07c0.27,10.35,0.68,19.61,4.09,26.97h-25.88c-2.86-5.18-3-12.26-3.27-27.1
			c-0.14-6.81-2.86-9.81-9.26-9.81h-23.43v36.91h-25.33V410.82z M1711.68,429.21v22.34h23.29c7.36,0,11.99-3.95,11.99-11.17
			c0-7.36-4.49-11.17-11.99-11.17H1711.68z"/>
		<path class="st1" d="M1809.88,410.82h29.69l35.28,95.34h-26.97l-6.54-19.34h-35l-6.4,19.34h-25.47L1809.88,410.82z M1811.92,469.8
			h23.84l-11.85-36.37L1811.92,469.8z"/>
		<path class="st1" d="M1878.11,410.82h27.79l17.98,30.65l17.71,30.78l-0.27-30.78l-0.14-30.65h21.66v95.34h-27.92l-17.84-30.37
			l-17.57-30.51l0.27,30.51v30.37h-21.66V410.82z"/>
	</g>
	<g>
		<polygon class="st2" points="1598.02,170.48 1598.02,188.72 1652.73,188.72 1652.73,279.92 1506.83,279.92 1506.83,133.99 
			1543.29,133.99 1543.29,243.43 1616.27,243.43 1616.27,225.21 1561.53,225.21 1561.53,133.99 1652.73,133.99 1652.73,170.48 		"/>
		<path class="st2" d="M1488.58,130.52v167.64h167.61c8.16,0,14.78-6.62,14.78-14.78V170.48h-18.24v-36.49h54.73v151.45
			c0,27.16-22.02,49.19-49.19,49.19h-206.18V128.47c0-27.17,22.02-49.19,49.19-49.19h206.18v36.46h-204.1
			C1495.2,115.74,1488.58,122.36,1488.58,130.52z"/>
	</g>
</g>
<g>
	<g>
		<path class="st1" d="M132.37,23.8h15.21v46.05h30.35v11.21h-45.56V23.8z"/>
		<path class="st1" d="M177.28,52.42c0-19.06,11.37-29.85,28.55-29.85c17.18,0,28.55,10.8,28.55,29.85S223,82.28,205.82,82.28
			C188.65,82.28,177.28,71.48,177.28,52.42z M218.83,52.42c0-12.27-5.15-18.16-13-18.16c-7.93,0-13,5.89-13,18.16
			c0,12.27,5.07,18.16,13,18.16C213.67,70.58,218.83,64.69,218.83,52.42z"/>
		<path class="st1" d="M279.92,72.87c-3.93,5.89-9.82,9.16-17.42,9.16c-15.13,0-25.03-10.71-25.03-29.53
			c0-19.22,10.96-29.94,28.22-29.94c15.05,0,25.36,8.18,27.65,22.17H278.2c-1.64-7.03-6.46-10.72-12.35-10.72
			c-8.02,0-12.92,5.97-12.92,18.49c0,12.43,4.99,18.49,13,18.49c6.3,0,11.12-3.84,12.92-11.53h-13.01V49.15h27.65v31.9h-13.58V72.87
			z"/>
		<path class="st1" d="M298.24,23.8h15.13v57.25h-15.13V23.8z"/>
		<path class="st1" d="M317.13,61.5h14.89c0.9,6.79,4.74,9.9,11.94,9.9c6.87,0,9.98-2.45,9.98-5.48c0-4.5-5.73-6.13-12.6-7.85
			c-10.55-2.54-23.8-5.23-23.8-18.16c0-10.22,9-17.18,23.72-17.18c15.46,0,25.36,7.12,26.91,20.04h-14.31
			c-1.06-5.97-5.4-9.32-12.11-9.32c-6.38,0-9,2.21-9,5.15c0,4.42,6.05,6.05,13.25,7.85c10.39,2.54,23.07,5.48,23.07,17.99
			c0,10.47-9.32,17.67-24.7,17.67C328.26,82.12,318.69,74.84,317.13,61.5z"/>
		<path class="st1" d="M388.37,35.08h-19.55V23.8h54.31v11.29h-19.55v45.97h-15.21V35.08z"/>
		<path class="st1" d="M426.4,23.8h31.16c12.76,0,20.12,6.13,20.12,15.95c0,6.13-2.86,11.12-8.42,13.66
			c5.23,1.8,6.87,5.81,7.03,11.45c0.16,6.22,0.41,11.78,2.45,16.2h-15.54c-1.72-3.11-1.8-7.36-1.96-16.28
			c-0.08-4.09-1.72-5.89-5.56-5.89h-14.07v22.17H426.4V23.8z M441.61,34.84v13.41h13.99c4.42,0,7.2-2.37,7.2-6.71
			c0-4.42-2.7-6.71-7.2-6.71H441.61z"/>
		<path class="st1" d="M500.58,23.8h17.83l21.18,57.25h-16.2l-3.93-11.61h-21.02l-3.84,11.61h-15.3L500.58,23.8z M501.81,59.21
			h14.31L509,37.37L501.81,59.21z"/>
		<path class="st1" d="M541.56,23.8h16.69l10.8,18.4l10.63,18.49l-0.16-18.49l-0.08-18.4h13.01v57.25h-16.77l-10.71-18.24
			L554.4,44.49l0.16,18.32v18.24h-13V23.8z"/>
	</g>
	<g>
		<polygon class="st2" points="59.92,37.45 59.92,44.94 82.39,44.94 82.39,82.39 22.48,82.39 22.48,22.46 37.45,22.46 37.45,67.4 
			67.41,67.4 67.41,59.92 44.94,59.92 44.94,22.46 82.39,22.46 82.39,37.45 		"/>
		<path class="st2" d="M14.98,21.04v68.84h68.82c3.35,0,6.07-2.72,6.07-6.07V37.45h-7.49V22.46h22.48v62.19
			c0,11.15-9.04,20.2-20.2,20.2H0V20.2C0,9.04,9.04,0,20.2,0h84.66v14.97H21.05C17.7,14.97,14.98,17.69,14.98,21.04z"/>
	</g>
</g>
<g>
	<g>
		<polygon class="st2" points="139.87,542.79 139.87,550.28 162.33,550.28 162.33,587.73 102.42,587.73 102.42,527.8 117.39,527.8 
			117.39,572.74 147.36,572.74 147.36,565.26 124.88,565.26 124.88,527.8 162.33,527.8 162.33,542.79 		"/>
		<path class="st2" d="M94.93,526.38v68.84h68.82c3.35,0,6.07-2.72,6.07-6.07v-46.36h-7.49V527.8h22.48v62.19
			c0,11.15-9.04,20.2-20.2,20.2H79.94v-84.65c0-11.15,9.04-20.2,20.2-20.2h84.66v14.97H101C97.64,520.31,94.93,523.03,94.93,526.38z
			"/>
	</g>
</g>
<g>
	<text transform="matrix(1 0 0 1 2235.4165 509.6495)" class="st1" style="font-family:'Owners-Bold'; font-size:119.5618px;">LOGISTRAN</text>
	<g>
		<polygon class="st2" points="2582.46,188.44 2582.46,203.75 2628.37,203.75 2628.37,280.28 2505.94,280.28 2505.94,157.82 
			2536.53,157.82 2536.53,249.66 2597.77,249.66 2597.77,234.37 2551.84,234.37 2551.84,157.82 2628.37,157.82 2628.37,188.44 		"/>
		<path class="st2" d="M2490.63,154.92v140.68h140.65c6.85,0,12.4-5.55,12.4-12.4v-94.74h-15.31v-30.62h45.93v127.09
			c0,22.8-18.48,41.27-41.27,41.27h-173.02V153.19c0-22.8,18.48-41.27,41.27-41.27h173.02v30.6h-171.27
			C2496.18,142.51,2490.63,148.07,2490.63,154.92z"/>
	</g>
</g>
<rect x="1252.89" y="1130.26" class="st1" width="672.53" height="46.31"/>
<rect x="1252.89" y="994.73" class="st1" width="224.18" height="46.31"/>
<rect x="1252.89" y="1070.4" class="st1" width="336.63" height="46.31"/>
</svg>
