<?xml version="1.0" encoding="UTF-8"?>
<svg id="Capa_1" data-name="Capa 1" xmlns="http://www.w3.org/2000/svg" version="1.1" viewBox="0 0 592.4 104.8">
  <defs>
    <style>
      .cls-1 {
        font-family: Owners-Bold, Owners;
        font-size: 119.6px;
        font-weight: 700;
        isolation: isolate;
      }

      .cls-1, .cls-2 {
        fill: #fff;
      }

      .cls-3 {
        fill: #009dda;
      }

      .cls-3, .cls-2 {
        stroke-width: 0px;
      }
    </style>
  </defs>
  <g>
    <g>
      <path class="cls-2" d="M132.4,23.8h15.2v46h30.3v11.2h-45.6V23.8Z"/>
      <path class="cls-2" d="M177.3,52.4c0-19.1,11.4-29.9,28.5-29.9s28.5,10.8,28.5,29.9-11.4,29.9-28.5,29.9c-17.2,0-28.5-10.8-28.5-29.9ZM218.8,52.4c0-12.3-5.2-18.2-13-18.2s-13,5.9-13,18.2,5.1,18.2,13,18.2,13-5.9,13-18.2Z"/>
      <path class="cls-2" d="M279.9,72.9c-3.9,5.9-9.8,9.2-17.4,9.2-15.1,0-25-10.7-25-29.5s11-29.9,28.2-29.9,25.4,8.2,27.7,22.2h-15.1c-1.6-7-6.5-10.7-12.3-10.7s-12.9,6-12.9,18.5,5,18.5,13,18.5,11.1-3.8,12.9-11.5h-13v-10.3h27.7v31.9h-13.6v-8.2Z"/>
      <path class="cls-2" d="M298.2,23.8h15.1v57.2h-15.1V23.8Z"/>
      <path class="cls-2" d="M317.1,61.5h14.9c.9,6.8,4.7,9.9,11.9,9.9s10-2.5,10-5.5c0-4.5-5.7-6.1-12.6-7.9-10.5-2.5-23.8-5.2-23.8-18.2s9-17.2,23.7-17.2,25.4,7.1,26.9,20h-14.3c-1.1-6-5.4-9.3-12.1-9.3s-9,2.2-9,5.1c0,4.4,6,6,13.3,7.9,10.4,2.5,23.1,5.5,23.1,18s-9.3,17.7-24.7,17.7c-16.1,0-25.7-7.3-27.2-20.6Z"/>
      <path class="cls-2" d="M388.4,35.1h-19.5v-11.3h54.3v11.3h-19.5v46h-15.2v-46Z"/>
      <path class="cls-2" d="M426.4,23.8h31.2c12.8,0,20.1,6.1,20.1,16s-2.9,11.1-8.4,13.7c5.2,1.8,6.9,5.8,7,11.5.2,6.2.4,11.8,2.5,16.2h-15.5c-1.7-3.1-1.8-7.4-2-16.3,0-4.1-1.7-5.9-5.6-5.9h-14.1v22.2h-15.2V23.8ZM441.6,34.8v13.4h14c4.4,0,7.2-2.4,7.2-6.7s-2.7-6.7-7.2-6.7h-14Z"/>
      <path class="cls-2" d="M500.6,23.8h17.8l21.2,57.2h-16.2l-3.9-11.6h-21l-3.8,11.6h-15.3l21.3-57.2ZM501.8,59.2h14.3l-7.1-21.8-7.2,21.8Z"/>
      <path class="cls-2" d="M541.6,23.8h16.7l10.8,18.4,10.6,18.5-.2-18.5v-18.4c0,0,12.9,0,12.9,0v57.2h-16.8l-10.7-18.2-10.5-18.3.2,18.3v18.2h-13V23.8h0Z"/>
    </g>
    <path class="cls-3" d="M21,15h83.8V0H20.2C9,0,0,9.1,0,20.2v84.7h84.7c11.2,0,20.2-9.1,20.2-20.2V22.5h-22.5s-37.5,0-37.5,0v37.5h22.5v7.5h-30V22.4h-15v59.9h59.9v-37.4h-22.5v-7.5h30v46.4c0,3.4-2.7,6.1-6.1,6.1H15V21c0-3.4,2.7-6.1,6.1-6.1Z"/>
  </g>
  <g>
    <text class="cls-1" transform="translate(-2572.2 -144.3)"><tspan x="0" y="0">LOGISTRAN</tspan></text>
    <g>
      <polygon class="cls-3" points="-2225.1 -465.5 -2225.1 -450.2 -2179.2 -450.2 -2179.2 -373.7 -2301.7 -373.7 -2301.7 -496.1 -2271.1 -496.1 -2271.1 -404.3 -2209.8 -404.3 -2209.8 -419.6 -2255.8 -419.6 -2255.8 -496.1 -2179.2 -496.1 -2179.2 -465.5 -2225.1 -465.5"/>
      <path class="cls-3" d="M-2317-499v140.7h140.7c6.8,0,12.4-5.6,12.4-12.4v-94.7h-15.3v-30.6h45.9v127.1c0,22.8-18.5,41.3-41.3,41.3h-173v-173c0-22.8,18.5-41.3,41.3-41.3h173v30.6h-171.3c-6.8,0-12.4,5.5-12.4,12.4Z"/>
    </g>
  </g>
  <rect class="cls-2" x="-3579.6" y="-107.6" width="672.5" height="46.3"/>
  <rect class="cls-2" x="-3579.6" y="-243.1" width="224.2" height="46.3"/>
  <rect class="cls-2" x="-3579.6" y="-167.5" width="336.6" height="46.3"/>
</svg>