<?xml version="1.0" encoding="utf-8"?>
<!-- Generator: Adobe Illustrator 28.5.0, SVG Export Plug-In . SVG Version: 9.03 Build 54727)  -->
<svg version="1.1" id="a" xmlns="http://www.w3.org/2000/svg" xmlns:xlink="http://www.w3.org/1999/xlink" x="0px" y="0px"
	 viewBox="0 0 104.86 104.85" style="enable-background:new 0 0 104.86 104.85;" xml:space="preserve">
<style type="text/css">
	.st0{fill:#FFFFFF;}
	.st1{fill:#009DDA;}
</style>
<path class="st0" d="M12.88,0h79.1c7.11,0,12.88,5.77,12.88,12.88v79.1c0,7.11-5.77,12.88-12.88,12.88h-79.1
	C5.77,104.86,0,99.09,0,91.98v-79.1C0,5.77,5.77,0,12.88,0z"/>
<path class="st1" d="M28.6,23.99h63.64V12.62H27.95c-8.47,0-15.34,6.87-15.34,15.34v64.28H76.9c8.47,0,15.34-6.87,15.34-15.34V29.67
	h-45.5v28.44h17.07v5.68H41.06V29.67H29.69v45.5h45.49V46.74H58.12v-5.69h22.75v35.2c0,2.54-2.06,4.61-4.61,4.61H24V28.59
	c0-2.54,2.06-4.61,4.61-4.61L28.6,23.99z"/>
</svg>
