<?xml version="1.0" encoding="UTF-8"?><svg id="a" xmlns="http://www.w3.org/2000/svg" viewBox="0 0 1279.89 816.52"><defs><style>.b{fill:#132d3b;}.b,.c,.d{stroke-width:0px;}.c{fill:#009dda;}.d{fill:#fff;}</style></defs><rect class="b" width="1279.89" height="816.52"/><path class="d" d="M256.89,512.34h25.33v76.68h50.53v18.66h-75.87v-95.34Z"/><path class="d" d="M331.67,560.01c0-31.74,18.93-49.72,47.54-49.72s47.54,17.98,47.54,49.72-18.93,49.72-47.54,49.72-47.54-17.98-47.54-49.72ZM400.86,560.01c0-20.43-8.58-30.24-21.66-30.24s-21.66,9.81-21.66,30.24,8.44,30.24,21.66,30.24,21.66-9.81,21.66-30.24Z"/><path class="d" d="M502.59,594.06c-6.54,9.81-16.34,15.25-29.01,15.25-25.2,0-41.68-17.84-41.68-49.17s18.25-49.85,46.99-49.85c25.06,0,42.22,13.62,46.04,36.91h-25.2c-2.72-11.71-10.76-17.84-20.57-17.84-13.35,0-21.52,9.94-21.52,30.78s8.31,30.78,21.66,30.78c10.49,0,18.52-6.4,21.52-19.21h-21.66v-17.16h46.04v53.12h-22.61v-13.62Z"/><path class="d" d="M533.1,512.34h25.2v95.34h-25.2v-95.34Z"/><path class="d" d="M564.56,575.13h24.79c1.5,11.31,7.9,16.48,19.89,16.48s16.62-4.09,16.62-9.13c0-7.49-9.53-10.22-20.98-13.08-17.57-4.22-39.64-8.72-39.64-30.24,0-17.03,14.98-28.6,39.5-28.6,25.74,0,42.22,11.85,44.81,33.37h-23.84c-1.77-9.94-8.99-15.53-20.16-15.53s-14.98,3.68-14.98,8.58c0,7.36,10.08,10.08,22.07,13.08,17.3,4.22,38.41,9.13,38.41,29.96,0,17.43-15.53,29.42-41.13,29.42s-42.77-12.12-45.36-34.32Z"/><path class="d" d="M683.19,531.13h-32.55v-18.8h90.44v18.8h-32.55v76.55h-25.33v-76.55Z"/><path class="d" d="M746.52,512.34h51.89c21.25,0,33.51,10.22,33.51,26.56,0,10.22-4.77,18.52-14.03,22.75,8.72,3,11.44,9.67,11.71,19.07.27,10.35.68,19.61,4.09,26.97h-25.88c-2.86-5.18-3-12.26-3.27-27.1-.14-6.81-2.86-9.81-9.26-9.81h-23.43v36.91h-25.33v-95.34ZM771.85,530.73v22.34h23.29c7.36,0,11.99-3.95,11.99-11.17s-4.49-11.17-11.99-11.17h-23.29Z"/><path class="d" d="M870.05,512.34h29.69l35.28,95.34h-26.97l-6.54-19.34h-35l-6.4,19.34h-25.47l35.41-95.34ZM872.09,571.31h23.84l-11.85-36.37-11.99,36.37Z"/><path class="d" d="M938.28,512.34h27.79l17.98,30.65,17.71,30.78-.27-30.78-.14-30.65h21.66v95.34h-27.92l-17.84-30.37-17.57-30.51.27,30.51v30.37h-21.66v-95.34Z"/><polygon class="c" points="658.19 271.99 658.19 290.24 712.9 290.24 712.9 381.43 567 381.43 567 235.5 603.46 235.5 603.46 344.94 676.44 344.94 676.44 326.73 621.7 326.73 621.7 235.5 712.9 235.5 712.9 271.99 658.19 271.99"/><path class="c" d="M548.75,232.04v167.64h167.61c8.16,0,14.78-6.62,14.78-14.78v-112.91h-18.24v-36.49h54.73v151.45c0,27.17-22.02,49.19-49.19,49.19h-206.18v-206.15c0-27.17,22.02-49.19,49.19-49.19h206.18v36.46h-204.1c-8.16,0-14.78,6.62-14.78,14.78Z"/></svg>