<?xml version="1.0" encoding="utf-8"?>
<!-- Generator: Adobe Illustrator 28.5.0, SVG Export Plug-In . SVG Version: 9.03 Build 54727)  -->
<svg version="1.1" id="Capa_1" xmlns="http://www.w3.org/2000/svg" xmlns:xlink="http://www.w3.org/1999/xlink" x="0px" y="0px"
	 viewBox="0 0 511.86 510.96" style="enable-background:new 0 0 511.86 510.96;" xml:space="preserve">
<style type="text/css">
	.st0{fill:#FFFFFF;}
</style>
<g>
	<path class="st0" d="M234.4,0c14.64,0,29.28,0,43.91,0c9.99,1.62,20.12,2.32,29.98,4.69c99.88,24.04,164.95,85.15,195.08,183.37
		c4.64,15.13,6.62,30.81,8.48,46.48c0,13.97,0,27.95,0,41.92c-0.22,1.31-0.51,2.6-0.64,3.92c-3.78,39.05-15.11,75.87-36.58,108.64
		c-59.2,90.33-143.06,131.21-250.73,120.18c-54.65-5.6-102.43-28.61-141.99-66.58c-66.67-64-94.21-142.8-76.82-233.47
		C24.82,106.33,88.12,40.03,187.94,8.72C203.04,3.98,218.76,2.07,234.4,0z M413.85,249.81c0.2-7.13-0.58-15.54-1.95-23.93
		c-13.32-81.77-91.64-138.15-173.66-124.96C134.31,117.63,78.28,230.3,127.67,323.42c1.73,3.27,1.74,6.15,0.81,9.49
		c-6.17,22.26-12.26,44.54-18.36,66.81c-1.61,5.89-1.27,6.25,4.53,4.74c22.83-5.96,45.67-11.86,68.45-18
		c4-1.08,7.24-0.62,10.91,1.19c29.35,14.49,60.3,19.34,92.58,13.95C363.02,388.83,414.82,322.07,413.85,249.81z"/>
	<path class="st0" d="M264.45,378.9c-26.07,0.03-47.77-5.97-67.8-17.84c-3.15-1.87-5.99-2.16-9.41-1.23
		c-12.66,3.45-25.37,6.74-38.07,10.03c-4.87,1.26-5.41,0.74-4.11-4.12c3.26-12.2,6.5-24.41,10.04-36.52
		c1.13-3.87,0.54-6.85-1.55-10.26c-37.34-60.88-19.35-138.04,40.92-176.08c75.95-47.93,178.4-2.13,193.03,86.29
		c11.68,70.62-33.95,135.29-104.46,148.08C275.97,378.55,268.82,378.65,264.45,378.9z M301.57,324c1.5,0,2.99,0.06,4.49-0.01
		c17.06-0.85,30.32-12.78,32.59-29.26c0.53-3.88,0.16-7.27-3.98-9.21c-9.62-4.52-19.18-9.18-28.79-13.74
		c-3.84-1.82-6.9-1.03-9.55,2.52c-3.37,4.53-7.09,8.8-10.69,13.15c-2.27,2.73-4.99,3.54-8.44,2.19
		c-22.84-8.95-40.24-24.21-52.74-45.22c-1.85-3.12-1.59-5.9,0.71-8.71c2.53-3.08,4.79-6.38,7.29-9.48
		c3.14-3.89,3.61-7.82,1.47-12.48c-3.46-7.55-6.47-15.3-9.66-22.98c-4.34-10.43-17.57-13.22-25.86-5.32
		c-6.52,6.22-11.02,13.6-12.81,22.61c-2.53,12.75,0.3,24.59,6.58,35.49c15.87,27.56,36.46,50.79,64.69,66.18
		C270.75,317.29,285.41,323.25,301.57,324z"/>
</g>
</svg>
